<svg version="1.1" id="el_SGCjqsEza" xmlns="http://www.w3.org/2000/svg" xmlns:xlink="http://www.w3.org/1999/xlink" x="0px" y="0px" viewBox="0 0 157 88" style="enable-background:new 0 0 157.8 88.4;" xml:space="preserve"><style>@-webkit-keyframes kf_el_NW_qgMK6Ii_an_UW5SLtI_I{94.20%{opacity: 1;}98.55%{opacity: 0;}0%{opacity: 1;}100%{opacity: 0;}}@keyframes kf_el_NW_qgMK6Ii_an_UW5SLtI_I{94.20%{opacity: 1;}98.55%{opacity: 0;}0%{opacity: 1;}100%{opacity: 0;}}@-webkit-keyframes kf_el_s1Vr0PGFN8_an_uiHF7QquZ{85.51%{opacity: 1;}91.30%{opacity: 0;}97.10%{opacity: 1;}0%{opacity: 1;}100%{opacity: 1;}}@keyframes kf_el_s1Vr0PGFN8_an_uiHF7QquZ{85.51%{opacity: 1;}91.30%{opacity: 0;}97.10%{opacity: 1;}0%{opacity: 1;}100%{opacity: 1;}}@-webkit-keyframes kf_el_9Tr5FXdCzs_an_1199QiQx9{62.32%{opacity: 1;}76.81%{opacity: 0;}92.75%{opacity: 1;}0%{opacity: 1;}100%{opacity: 1;}}@keyframes kf_el_9Tr5FXdCzs_an_1199QiQx9{62.32%{opacity: 1;}76.81%{opacity: 0;}92.75%{opacity: 1;}0%{opacity: 1;}100%{opacity: 1;}}@-webkit-keyframes kf_el_6c8_edqUtx_an_06DlH7USu{40.58%{opacity: 1;}62.32%{opacity: 0;}82.61%{opacity: 1;}0%{opacity: 1;}100%{opacity: 1;}}@keyframes kf_el_6c8_edqUtx_an_06DlH7USu{40.58%{opacity: 1;}62.32%{opacity: 0;}82.61%{opacity: 1;}0%{opacity: 1;}100%{opacity: 1;}}@-webkit-keyframes kf_el_Rb5frqVdjq_an_BWSu70GeH{26.09%{opacity: 1;}40.58%{opacity: 0;}55.07%{opacity: 1;}0%{opacity: 1;}100%{opacity: 1;}}@keyframes kf_el_Rb5frqVdjq_an_BWSu70GeH{26.09%{opacity: 1;}40.58%{opacity: 0;}55.07%{opacity: 1;}0%{opacity: 1;}100%{opacity: 1;}}@-webkit-keyframes kf_el_0ruzM-Tgkw_an_Glzpb1QTu{17.39%{opacity: 1;}26.09%{opacity: 0;}34.78%{opacity: 1;}0%{opacity: 1;}100%{opacity: 1;}}@keyframes kf_el_0ruzM-Tgkw_an_Glzpb1QTu{17.39%{opacity: 1;}26.09%{opacity: 0;}34.78%{opacity: 1;}0%{opacity: 1;}100%{opacity: 1;}}@-webkit-keyframes kf_el_G4edv0WAYZ_an_yXwXeo_Dq{11.59%{opacity: 1;}17.39%{opacity: 0;}23.19%{opacity: 1;}0%{opacity: 1;}100%{opacity: 1;}}@keyframes kf_el_G4edv0WAYZ_an_yXwXeo_Dq{11.59%{opacity: 1;}17.39%{opacity: 0;}23.19%{opacity: 1;}0%{opacity: 1;}100%{opacity: 1;}}@-webkit-keyframes kf_el_4cGSXE4e1l_an_VgFpPn74w{2.90%{opacity: 1;}7.25%{opacity: 0;}11.59%{opacity: 1;}0%{opacity: 1;}100%{opacity: 1;}}@keyframes kf_el_4cGSXE4e1l_an_VgFpPn74w{2.90%{opacity: 1;}7.25%{opacity: 0;}11.59%{opacity: 1;}0%{opacity: 1;}100%{opacity: 1;}}@-webkit-keyframes kf_el_zRMRfL5eWP_an_hjtyCez-b{0%{opacity: 1;}2.90%{opacity: 0;}5.80%{opacity: 1;}100%{opacity: 1;}}@keyframes kf_el_zRMRfL5eWP_an_hjtyCez-b{0%{opacity: 1;}2.90%{opacity: 0;}5.80%{opacity: 1;}100%{opacity: 1;}}#el_SGCjqsEza *{-webkit-animation-duration: 2.3s;animation-duration: 2.3s;-webkit-animation-iteration-count: infinite;animation-iteration-count: infinite;-webkit-animation-timing-function: cubic-bezier(0, 0, 1, 1);animation-timing-function: cubic-bezier(0, 0, 1, 1);}#el_0ruzM-Tgkw{-webkit-clip-path: url(#SVGID_2_);clip-path: url(#SVGID_2_);fill: #3BA0BF;-webkit-animation-fill-mode: backwards;animation-fill-mode: backwards;opacity: 1;-webkit-animation-name: kf_el_0ruzM-Tgkw_an_Glzpb1QTu;animation-name: kf_el_0ruzM-Tgkw_an_Glzpb1QTu;-webkit-animation-timing-function: cubic-bezier(0, 0, 0.58, 1);animation-timing-function: cubic-bezier(0, 0, 0.58, 1);}#el_Rb5frqVdjq{-webkit-clip-path: url(#SVGID_2_);clip-path: url(#SVGID_2_);fill: #3BA0BF;-webkit-animation-fill-mode: backwards;animation-fill-mode: backwards;opacity: 1;-webkit-animation-name: kf_el_Rb5frqVdjq_an_BWSu70GeH;animation-name: kf_el_Rb5frqVdjq_an_BWSu70GeH;-webkit-animation-timing-function: cubic-bezier(0, 0, 0.58, 1);animation-timing-function: cubic-bezier(0, 0, 0.58, 1);}#el_6c8_edqUtx{-webkit-clip-path: url(#SVGID_2_);clip-path: url(#SVGID_2_);fill: #3BA0BF;-webkit-animation-fill-mode: backwards;animation-fill-mode: backwards;opacity: 1;-webkit-animation-name: kf_el_6c8_edqUtx_an_06DlH7USu;animation-name: kf_el_6c8_edqUtx_an_06DlH7USu;-webkit-animation-timing-function: cubic-bezier(0, 0, 0.58, 1);animation-timing-function: cubic-bezier(0, 0, 0.58, 1);}#el_4cGSXE4e1l{-webkit-clip-path: url(#SVGID_2_);clip-path: url(#SVGID_2_);fill: #00769C;-webkit-animation-fill-mode: backwards;animation-fill-mode: backwards;opacity: 1;-webkit-animation-name: kf_el_4cGSXE4e1l_an_VgFpPn74w;animation-name: kf_el_4cGSXE4e1l_an_VgFpPn74w;-webkit-animation-timing-function: cubic-bezier(0, 0, 0.58, 1);animation-timing-function: cubic-bezier(0, 0, 0.58, 1);}#el_G4edv0WAYZ{-webkit-clip-path: url(#SVGID_2_);clip-path: url(#SVGID_2_);fill: #00A3A8;-webkit-animation-fill-mode: backwards;animation-fill-mode: backwards;opacity: 1;-webkit-animation-name: kf_el_G4edv0WAYZ_an_yXwXeo_Dq;animation-name: kf_el_G4edv0WAYZ_an_yXwXeo_Dq;-webkit-animation-timing-function: cubic-bezier(0, 0, 0.58, 1);animation-timing-function: cubic-bezier(0, 0, 0.58, 1);}#el_9Tr5FXdCzs{-webkit-clip-path: url(#SVGID_2_);clip-path: url(#SVGID_2_);fill: #00A3A8;-webkit-animation-fill-mode: backwards;animation-fill-mode: backwards;opacity: 1;-webkit-animation-name: kf_el_9Tr5FXdCzs_an_1199QiQx9;animation-name: kf_el_9Tr5FXdCzs_an_1199QiQx9;-webkit-animation-timing-function: cubic-bezier(0, 0, 0.58, 1);animation-timing-function: cubic-bezier(0, 0, 0.58, 1);}#el_zRMRfL5eWP{-webkit-clip-path: url(#SVGID_2_);clip-path: url(#SVGID_2_);fill: #00769C;-webkit-animation-fill-mode: backwards;animation-fill-mode: backwards;opacity: 1;-webkit-animation-name: kf_el_zRMRfL5eWP_an_hjtyCez-b;animation-name: kf_el_zRMRfL5eWP_an_hjtyCez-b;-webkit-animation-timing-function: cubic-bezier(0, 0, 0.58, 1);animation-timing-function: cubic-bezier(0, 0, 0.58, 1);}#el_NW_qgMK6Ii{-webkit-clip-path: url(#SVGID_2_);clip-path: url(#SVGID_2_);fill: #00769C;-webkit-animation-fill-mode: backwards;animation-fill-mode: backwards;opacity: 1;-webkit-animation-name: kf_el_NW_qgMK6Ii_an_UW5SLtI_I;animation-name: kf_el_NW_qgMK6Ii_an_UW5SLtI_I;-webkit-animation-timing-function: cubic-bezier(0, 0, 0.58, 1);animation-timing-function: cubic-bezier(0, 0, 0.58, 1);}#el_s1Vr0PGFN8{-webkit-clip-path: url(#SVGID_2_);clip-path: url(#SVGID_2_);fill: #00A3A8;-webkit-animation-fill-mode: backwards;animation-fill-mode: backwards;opacity: 1;-webkit-animation-name: kf_el_s1Vr0PGFN8_an_uiHF7QquZ;animation-name: kf_el_s1Vr0PGFN8_an_uiHF7QquZ;-webkit-animation-timing-function: cubic-bezier(0, 0, 0.58, 1);animation-timing-function: cubic-bezier(0, 0, 0.58, 1);}#el_4cGSXE4e1l_an_h578llQu6{-webkit-transform: translate(7.806028842926025px, 62.01759338378906px) scale(1, 1) translate(-7.806028842926025px, -62.01759338378906px);transform: translate(7.806028842926025px, 62.01759338378906px) scale(1, 1) translate(-7.806028842926025px, -62.01759338378906px);}#el_zRMRfL5eWP_an_Jv8Vu7txg{-webkit-transform: translate(55.69697570800781px, 57.96055221557617px) scale(1, 1) translate(-55.69697570800781px, -57.96055221557617px);transform: translate(55.69697570800781px, 57.96055221557617px) scale(1, 1) translate(-55.69697570800781px, -57.96055221557617px);}</style>

<g id="el_QOw_svKDLu">
	<defs>
		<rect id="SVGID_1_" y="0" width="157.8" height="88.4"/>
	</defs>
	<clipPath id="SVGID_2_">
		<use xlink:href="#SVGID_1_" style="overflow:visible;"/>
	</clipPath>
	<path d="M46.2,21.5c4.6,1.2,3.5,5-2.5,8.4c-6,3.4-14.6,5.3-19.2,4.1c-4.6-1.2-3.5-5,2.5-8.4&#10;&#9;&#9;C33,22.1,41.6,20.3,46.2,21.5" id="el_0ruzM-Tgkw"/>
	<path d="M75.8,6.9c3.8,1.1,3,4.4-1.9,7.4c-4.9,3-11.9,4.5-15.8,3.4c-3.8-1.1-3-4.4,1.9-7.4C64.9,7.3,72,5.8,75.8,6.9" id="el_Rb5frqVdjq"/>
	<path d="M103.1,0.3c2.9,0.8,2.2,3.3-1.4,5.5C98,8,92.8,9.2,89.9,8.3c-2.9-0.8-2.2-3.3,1.4-5.5&#10;&#9;&#9;C95,0.6,100.2-0.6,103.1,0.3" id="el_6c8_edqUtx"/>
	<path d="M46.4,62.6c7.3,1.9,5.5,7.8-3.9,13.3c-9.4,5.5-22.9,8.4-30.2,6.5c-7.3-1.9-5.5-7.8,3.9-13.3&#10;&#9;&#9;C25.6,63.6,39.2,60.7,46.4,62.6" id="el_4cGSXE4e1l"/>
	<path d="M29.7,43.8c5.6,1.4,4.2,6-3,10.2c-7.2,4.2-17.7,6.4-23.3,5c-5.6-1.4-4.3-6,3-10.2&#10;&#9;&#9;C13.7,44.6,24.1,42.3,29.7,43.8" id="el_G4edv0WAYZ"/>
	<path d="M131.6,1.5c3.6,1.2,2.9,4.5-1.7,7.4c-4.6,2.9-11.2,4.3-14.9,3.1c-3.6-1.2-2.9-4.5,1.7-7.4&#10;&#9;&#9;C121.3,1.7,128,0.3,131.6,1.5" id="el_9Tr5FXdCzs"/>
	<path d="M111.9,59.2c10.5,3.3,7.8,12.3-6,20C92.2,87,72.5,90.5,62.1,87.2c-10.5-3.3-7.8-12.3,6-20&#10;&#9;&#9;C81.8,59.4,101.5,55.9,111.9,59.2" id="el_zRMRfL5eWP"/>
	<path d="M150.8,34.1c6.5,2,5.1,7.8-3.1,12.9c-8.2,5.1-20.1,7.6-26.5,5.6c-6.5-2-5.1-7.8,3.1-12.9&#10;&#9;&#9;C132.5,34.6,144.4,32.1,150.8,34.1" id="el_NW_qgMK6Ii"/>
	<path d="M154.8,11.2c4.6,1.6,3.7,6-2,9.9c-5.8,3.8-14.2,5.6-18.8,4c-4.6-1.6-3.7-6,2.1-9.9&#10;&#9;&#9;C141.7,11.3,150.2,9.5,154.8,11.2" id="el_s1Vr0PGFN8"/>
</g>
</svg>